<svg width="78.000000" height="78.000000" viewBox="0 0 78 78" fill="none" xmlns="http://www.w3.org/2000/svg" xmlns:xlink="http://www.w3.org/1999/xlink">
	<desc>
			Created with Pixso.
	</desc>
	<defs>
		<clipPath id="clip508_5794">
			<rect id="Frame" width="78.000000" height="78.000000" fill="white" fill-opacity="0"/>
		</clipPath>
	</defs>
	<rect id="Frame" width="78.000000" height="78.000000" fill="#FFFFFF" fill-opacity="0"/>
	<g clip-path="url(#clip508_5794)">
		<path id="Vector" d="M58.5 35.75L35.75 35.75C34.8881 35.75 34.0614 35.4076 33.4519 34.7981C32.8424 34.1886 32.5 33.3619 32.5 32.5L32.5 13C32.5 12.1381 32.8424 11.3114 33.4519 10.7019C34.0614 10.0924 34.8881 9.75 35.75 9.75L65 9.75C65.8619 9.75 66.6886 10.0924 67.2981 10.7019C67.9076 11.3114 68.25 12.1381 68.25 13L68.25 45.5L58.5 35.75Z" stroke="#3F3A64" stroke-opacity="1.000000" stroke-width="2.750000" stroke-linejoin="round"/>
		<path id="Vector" d="M45.5 48.75L45.5 55.25C45.5 56.1119 45.1576 56.9386 44.5481 57.5481C43.9386 58.1576 43.1119 58.5 42.25 58.5L19.5 58.5L9.75 68.25L9.75 35.75C9.75 34.8881 10.0924 34.0614 10.7019 33.4519C11.3114 32.8424 12.1381 32.5 13 32.5L19.5 32.5" stroke="#20AD96" stroke-opacity="1.000000" stroke-width="2.750000" stroke-linejoin="round" stroke-linecap="round"/>
	</g>
</svg>
