<svg width="149.000000" height="27.310059" viewBox="0 0 149 27.3101" fill="none" xmlns="http://www.w3.org/2000/svg" xmlns:xlink="http://www.w3.org/1999/xlink">
	<desc>
			Created with Pixso.
	</desc>
	<defs>
		<clipPath id="clip2_5250">
			<rect id="Logo" width="149.000000" height="27.309973" fill="white" fill-opacity="0"/>
		</clipPath>
	</defs>
	<rect id="Logo" width="149.000000" height="27.309973" fill="#FFFFFF" fill-opacity="0"/>
	<g clip-path="url(#clip2_5250)">
		<path id="Vector" d="M16.2617 3.01221C17.8964 3.01221 19.4076 3.88159 20.2295 5.29443L24.1002 11.9497C24.9302 13.3765 24.9302 15.1387 24.1002 16.5652L20.2295 23.2207C19.4076 24.6335 17.8964 25.5027 16.2617 25.5027L8.46094 25.5027C6.82629 25.5027 5.31506 24.6335 4.49329 23.2207L0.622314 16.5652C-0.207397 15.1387 -0.207397 13.3765 0.622314 11.9497L4.49329 5.29443C5.31506 3.88159 6.82629 3.01221 8.46094 3.01221L16.2617 3.01221Z" fill="#20AD96" fill-opacity="1.000000" fill-rule="nonzero"/>
		<path id="Vector" d="M10.3508 16.9592L16.229 16.9592C16.4517 16.9592 16.6653 16.8706 16.8228 16.7131C16.9802 16.5557 17.0687 16.342 17.0687 16.1194L17.0687 11.0811C17.0687 10.8582 16.9802 10.6448 16.8228 10.4871C16.6653 10.3296 16.4517 10.2412 16.229 10.2412L8.67126 10.2412C8.44861 10.2412 8.23499 10.3296 8.07751 10.4871C7.92004 10.6448 7.83154 10.8582 7.83154 11.0811L7.83154 19.4785L10.3508 16.9592Z" stroke="#FFFFFF" stroke-opacity="1.000000" stroke-width="1.606469" stroke-linejoin="round"/>
		<path id="Vector" d="M36.4159 19.4783L34.0648 19.4783L34.0648 8.02783L36.4159 8.02783L36.4159 12.8142L41.3702 12.8142L41.3702 8.02783L43.7213 8.02783L43.7213 19.4783L41.3702 19.4783L41.3702 14.8677L36.4159 14.8677L36.4159 19.4783ZM51.7754 19.4783L49.8671 19.4783L49.7526 18.5698C49.4727 18.9058 49.1265 19.168 48.7144 19.3562C48.3021 19.5393 47.8491 19.6309 47.3556 19.6309C46.8212 19.6309 46.3452 19.5293 45.928 19.3257C45.5107 19.1169 45.1826 18.832 44.9432 18.4707C44.7041 18.1042 44.5846 17.6895 44.5846 17.2263C44.5846 16.7378 44.7144 16.3079 44.974 15.9363C45.2334 15.5647 45.5896 15.2747 46.0426 15.0662C46.5005 14.8523 47.0195 14.7454 47.5997 14.7454C47.9407 14.7454 48.2816 14.7837 48.6227 14.8599C48.9689 14.9363 49.2893 15.0432 49.5845 15.1807L49.5845 14.9822C49.5845 14.6768 49.4979 14.4146 49.3251 14.1958C49.157 13.9719 48.9231 13.7988 48.6227 13.6768C48.3276 13.5547 47.9967 13.4934 47.6305 13.4934C47.2792 13.4934 46.9307 13.5496 46.5846 13.6614C46.2437 13.7734 45.928 13.9414 45.6381 14.1653L45.0426 12.4934C45.5565 12.229 46.0756 12.0305 46.5999 11.8982C47.129 11.7607 47.6405 11.6919 48.1343 11.6919C48.8773 11.6919 49.5209 11.8396 50.0654 12.1348C50.61 12.4248 51.0299 12.8372 51.3251 13.3713C51.6254 13.9006 51.7754 14.5291 51.7754 15.2568L51.7754 19.4783ZM47.8364 17.9438C48.1265 17.9438 48.4039 17.8804 48.6686 17.7532C48.9331 17.626 49.147 17.4529 49.3098 17.2339C49.4777 17.0151 49.5669 16.7734 49.5769 16.5088L49.5769 16.4553C49.353 16.3027 49.1035 16.1855 48.8289 16.1042C48.5592 16.0178 48.2843 15.9744 48.0044 15.9744C47.587 15.9744 47.2461 16.0662 46.9814 16.2493C46.7168 16.4324 46.5846 16.6692 46.5846 16.9592C46.5846 17.1475 46.6381 17.3179 46.7449 17.4707C46.8567 17.6182 47.007 17.7354 47.1953 17.8218C47.3834 17.9033 47.5973 17.9438 47.8364 17.9438ZM55.0586 23.2952L52.8601 23.2952L52.8601 11.8447L54.7837 11.8447L54.8981 12.8828C55.2239 12.5112 55.6132 12.2212 56.0662 12.0127C56.524 11.7988 57.0228 11.6919 57.5623 11.6919C58.2646 11.6919 58.8879 11.865 59.4326 12.2112C59.9772 12.552 60.4071 13.0227 60.7225 13.6233C61.0382 14.2188 61.1959 14.8982 61.1959 15.6614C61.1959 16.4197 61.0382 17.0991 60.7225 17.6997C60.4071 18.3003 59.9772 18.7734 59.4326 19.1196C58.8879 19.4604 58.2646 19.6309 57.5623 19.6309C57.0636 19.6309 56.6006 19.542 56.1731 19.3638C55.7505 19.1807 55.379 18.9287 55.0586 18.6082L55.0586 23.2952ZM57.005 17.6616C57.3867 17.6616 57.7227 17.5776 58.0127 17.4097C58.3029 17.2366 58.5293 17 58.6921 16.6997C58.8601 16.3943 58.944 16.0483 58.944 15.6614C58.944 15.2695 58.8601 14.9236 58.6921 14.6233C58.5293 14.323 58.3029 14.0864 58.0127 13.9133C57.7227 13.7402 57.3894 13.6538 57.0126 13.6538C56.6564 13.6538 56.3359 13.7327 56.0509 13.8904C55.7657 14.0432 55.5343 14.2568 55.3562 14.5317C55.1832 14.8064 55.0839 15.1221 55.0586 15.4783L55.0586 15.8599C55.0839 16.2061 55.1832 16.5164 55.3562 16.7913C55.5293 17.061 55.7582 17.2747 56.0433 17.4324C56.3282 17.5852 56.6488 17.6616 57.005 17.6616ZM64.1584 23.2952L61.96 23.2952L61.96 11.8447L63.8835 11.8447L63.9982 12.8828C64.3239 12.5112 64.713 12.2212 65.166 12.0127C65.6241 11.7988 66.1227 11.6919 66.6622 11.6919C67.3645 11.6919 67.988 11.865 68.5325 12.2112C69.077 12.552 69.507 13.0227 69.8226 13.6233C70.1381 14.2188 70.2959 14.8982 70.2959 15.6614C70.2959 16.4197 70.1381 17.0991 69.8226 17.6997C69.507 18.3003 69.077 18.7734 68.5325 19.1196C67.988 19.4604 67.3645 19.6309 66.6622 19.6309C66.1635 19.6309 65.7004 19.542 65.2728 19.3638C64.8506 19.1807 64.4791 18.9287 64.1584 18.6082L64.1584 23.2952ZM66.105 17.6616C66.4866 17.6616 66.8225 17.5776 67.1127 17.4097C67.4027 17.2366 67.6292 17 67.792 16.6997C67.96 16.3943 68.0438 16.0483 68.0438 15.6614C68.0438 15.2695 67.96 14.9236 67.792 14.6233C67.6292 14.323 67.4027 14.0864 67.1127 13.9133C66.8225 13.7402 66.4891 13.6538 66.1127 13.6538C65.7565 13.6538 65.4358 13.7327 65.1508 13.8904C64.8658 14.0432 64.6343 14.2568 64.4562 14.5317C64.2831 14.8064 64.184 15.1221 64.1584 15.4783L64.1584 15.8599C64.184 16.2061 64.2831 16.5164 64.4562 16.7913C64.6292 17.061 64.8583 17.2747 65.1432 17.4324C65.4281 17.5852 65.7488 17.6616 66.105 17.6616ZM74.8079 23.2952L72.472 23.2952L74.0598 19.4707L70.2047 11.8447L72.6781 11.8447L75.098 16.9744L77.2202 11.8447L79.5483 11.8447L74.8079 23.2952ZM92.9086 18.0432C92.3743 18.5623 91.7405 18.9695 91.0077 19.2646C90.275 19.5598 89.4784 19.7073 88.6185 19.7073C87.7482 19.7073 86.9465 19.5598 86.2139 19.2646C85.4811 18.9644 84.8423 18.5469 84.2977 18.0127C83.7583 17.4731 83.3384 16.842 83.0382 16.1194C82.738 15.3967 82.5878 14.6082 82.5878 13.7532C82.5878 12.8982 82.738 12.1094 83.0382 11.3867C83.3384 10.6589 83.7583 10.0278 84.2977 9.49341C84.8423 8.95923 85.4811 8.54443 86.2139 8.24927C86.9465 7.94897 87.7482 7.79883 88.6185 7.79883C89.4734 7.79883 90.2648 7.94653 90.9924 8.2417C91.7252 8.53687 92.359 8.94653 92.8933 9.4707L91.2521 11.1194C90.9314 10.7275 90.5394 10.4197 90.0764 10.1958C89.6183 9.9668 89.1198 9.85229 88.5802 9.85229C88.0663 9.85229 87.5903 9.95142 87.1528 10.1499C86.7202 10.3433 86.3412 10.6182 86.0154 10.9744C85.6897 11.3257 85.4377 11.7378 85.2595 12.2112C85.0814 12.6843 84.9926 13.1958 84.9926 13.7454C84.9926 14.3052 85.0814 14.8218 85.2595 15.2952C85.4377 15.7683 85.6897 16.1831 86.0154 16.5393C86.3412 16.8904 86.7202 17.1653 87.1528 17.3638C87.5903 17.5571 88.0663 17.6538 88.5802 17.6538C89.1198 17.6538 89.6183 17.542 90.0764 17.3179C90.5344 17.0889 90.9238 16.7786 91.2443 16.3867L92.9086 18.0432ZM97.2832 19.6309C96.4994 19.6309 95.7972 19.4604 95.1763 19.1196C94.5554 18.7734 94.0669 18.3027 93.7106 17.7073C93.3596 17.1067 93.1838 16.4248 93.1838 15.6614C93.1838 14.9033 93.3596 14.2263 93.7106 13.6309C94.0669 13.0305 94.5554 12.5571 95.1763 12.2112C95.7972 11.865 96.4994 11.6919 97.2832 11.6919C98.0669 11.6919 98.7642 11.865 99.3748 12.2112C99.9905 12.5571 100.474 13.0305 100.825 13.6309C101.182 14.2263 101.36 14.9033 101.36 15.6614C101.36 16.4248 101.182 17.1067 100.825 17.7073C100.474 18.3027 99.9905 18.7734 99.3748 19.1196C98.7642 19.4604 98.0669 19.6309 97.2832 19.6309ZM97.2755 17.6692C97.6267 17.6692 97.9397 17.5825 98.2146 17.4097C98.4945 17.2314 98.7131 16.9922 98.871 16.6921C99.0338 16.3867 99.1151 16.0381 99.1151 15.6462C99.1151 15.2695 99.0338 14.9312 98.871 14.6309C98.7131 14.3308 98.4945 14.094 98.2146 13.9211C97.9397 13.7429 97.6267 13.6538 97.2755 13.6538C96.9193 13.6538 96.6012 13.7429 96.3213 13.9211C96.0466 14.094 95.8278 14.3308 95.6649 14.6309C95.5071 14.9312 95.4281 15.2695 95.4281 15.6462C95.4281 16.0381 95.5071 16.3867 95.6649 16.6921C95.8278 16.9922 96.0466 17.2314 96.3213 17.4097C96.6012 17.5825 96.9193 17.6692 97.2755 17.6692ZM108.94 19.4783L107.032 19.4783L106.917 18.5698C106.637 18.9058 106.292 19.168 105.879 19.3562C105.467 19.5393 105.014 19.6309 104.521 19.6309C103.986 19.6309 103.51 19.5293 103.093 19.3257C102.676 19.1169 102.347 18.832 102.108 18.4707C101.869 18.1042 101.749 17.6895 101.749 17.2263C101.749 16.7378 101.879 16.3079 102.139 15.9363C102.398 15.5647 102.755 15.2747 103.207 15.0662C103.666 14.8523 104.185 14.7454 104.765 14.7454C105.106 14.7454 105.447 14.7837 105.788 14.8599C106.134 14.9363 106.454 15.0432 106.75 15.1807L106.75 14.9822C106.75 14.6768 106.663 14.4146 106.49 14.1958C106.322 13.9719 106.088 13.7988 105.788 13.6768C105.492 13.5547 105.162 13.4934 104.795 13.4934C104.444 13.4934 104.096 13.5496 103.749 13.6614C103.408 13.7734 103.093 13.9414 102.803 14.1653L102.207 12.4934C102.721 12.229 103.241 12.0305 103.765 11.8982C104.294 11.7607 104.805 11.6919 105.299 11.6919C106.042 11.6919 106.686 11.8396 107.23 12.1348C107.775 12.4248 108.195 12.8372 108.49 13.3713C108.79 13.9006 108.94 14.5291 108.94 15.2568L108.94 19.4783ZM105.001 17.9438C105.291 17.9438 105.569 17.8804 105.833 17.7532C106.098 17.626 106.312 17.4529 106.475 17.2339C106.643 17.0151 106.732 16.7734 106.742 16.5088L106.742 16.4553C106.518 16.3027 106.269 16.1855 105.994 16.1042C105.724 16.0178 105.449 15.9744 105.169 15.9744C104.752 15.9744 104.411 16.0662 104.146 16.2493C103.882 16.4324 103.749 16.6692 103.749 16.9592C103.749 17.1475 103.803 17.3179 103.91 17.4707C104.022 17.6182 104.172 17.7354 104.36 17.8218C104.548 17.9033 104.762 17.9438 105.001 17.9438ZM116.788 18.2646C116.417 18.6921 115.961 19.0278 115.422 19.2722C114.882 19.5115 114.29 19.6309 113.643 19.6309C112.859 19.6309 112.157 19.4604 111.536 19.1196C110.921 18.7734 110.435 18.3003 110.078 17.6997C109.727 17.0991 109.552 16.4197 109.552 15.6614C109.552 14.8982 109.727 14.2188 110.078 13.6233C110.435 13.0227 110.921 12.552 111.536 12.2112C112.157 11.865 112.859 11.6919 113.643 11.6919C114.284 11.6919 114.875 11.8115 115.414 12.0508C115.954 12.29 116.409 12.6208 116.781 13.0432L115.491 14.3943C115.292 14.1653 115.04 13.9871 114.735 13.8599C114.435 13.7275 114.119 13.6614 113.788 13.6614C113.407 13.6614 113.066 13.748 112.765 13.9211C112.465 14.0889 112.229 14.323 112.055 14.6233C111.882 14.9185 111.796 15.2595 111.796 15.6462C111.796 16.0381 111.882 16.3867 112.055 16.6921C112.229 16.9973 112.465 17.2366 112.765 17.4097C113.066 17.5776 113.407 17.6616 113.788 17.6616C114.119 17.6616 114.437 17.5979 114.742 17.4707C115.048 17.3384 115.297 17.1577 115.491 16.9287L116.788 18.2646ZM117.506 19.4783L117.506 8.02783L119.698 8.02783L119.698 12.7454C120.247 12.0432 121.036 11.6919 122.064 11.6919C123.026 11.6919 123.776 11.9897 124.316 12.5852C124.855 13.1755 125.125 14.0024 125.125 15.0662L125.125 19.4783L122.934 19.4783L122.934 15.6462C122.934 15.01 122.794 14.519 122.514 14.1729C122.234 13.8269 121.843 13.6538 121.339 13.6538C120.825 13.6538 120.423 13.8293 120.132 14.1807C119.842 14.5317 119.698 15.0203 119.698 15.6462L119.698 19.4783L117.506 19.4783ZM127.316 10.0203C127.026 10.0203 126.782 9.91846 126.584 9.71484C126.385 9.51123 126.286 9.2644 126.286 8.97437C126.286 8.68433 126.385 8.44019 126.584 8.2417C126.782 8.03809 127.026 7.93628 127.316 7.93628C127.612 7.93628 127.858 8.03809 128.057 8.2417C128.26 8.44019 128.362 8.68433 128.362 8.97437C128.362 9.2644 128.26 9.51123 128.057 9.71484C127.858 9.91846 127.612 10.0203 127.316 10.0203ZM128.416 19.4783L126.225 19.4783L126.225 11.8447L128.416 11.8447L128.416 19.4783ZM137.294 19.4783L135.103 19.4783L135.103 15.5698C135.103 14.9744 134.961 14.5088 134.676 14.1729C134.396 13.832 134.012 13.6614 133.523 13.6614C133.014 13.6614 132.61 13.8396 132.309 14.1958C132.014 14.5469 131.867 15.0254 131.867 15.6309L131.867 19.4783L129.676 19.4783L129.676 11.8447L131.447 11.8447L131.523 13.0659C131.798 12.6182 132.157 12.2773 132.599 12.0432C133.042 11.8091 133.564 11.6919 134.164 11.6919C135.136 11.6919 135.9 11.9922 136.455 12.5928C137.014 13.1882 137.294 14.0127 137.294 15.0662L137.294 19.4783ZM141.501 19.5698C140.814 19.5698 140.198 19.3994 139.654 19.0583C139.109 18.7124 138.682 18.2441 138.371 17.6538C138.061 17.0583 137.905 16.384 137.905 15.6309C137.905 14.8726 138.061 14.1982 138.371 13.6082C138.682 13.0178 139.109 12.552 139.654 12.2112C140.198 11.865 140.816 11.6919 141.508 11.6919C142.048 11.6919 142.542 11.7988 142.99 12.0127C143.442 12.2212 143.832 12.5112 144.157 12.8828L144.257 11.8447L146.18 11.8447L146.18 19.2646C146.18 20.1094 145.995 20.8447 145.623 21.4707C145.257 22.1016 144.737 22.5879 144.066 22.9287C143.394 23.2749 142.608 23.448 141.707 23.448C140.455 23.448 139.32 23.0559 138.302 22.2722L139.188 20.4858C139.865 21.1526 140.654 21.4861 141.554 21.4861C142.038 21.4861 142.46 21.3892 142.822 21.1958C143.188 21.0024 143.473 20.7327 143.676 20.3867C143.885 20.0405 143.99 19.6387 143.99 19.1807L143.99 18.5547C143.674 18.8701 143.305 19.1196 142.883 19.3027C142.46 19.481 142 19.5698 141.501 19.5698ZM142.066 17.6157C142.422 17.6157 142.745 17.5393 143.035 17.3867C143.325 17.229 143.557 17.0127 143.73 16.7378C143.903 16.458 143.99 16.1423 143.99 15.7913L143.99 15.4629C143.99 15.1118 143.9 14.7988 143.722 14.5242C143.549 14.2493 143.318 14.0356 143.028 13.8828C142.743 13.7251 142.422 13.6462 142.066 13.6462C141.699 13.6462 141.371 13.7327 141.081 13.9058C140.791 14.0789 140.562 14.3154 140.394 14.6157C140.226 14.9109 140.142 15.2493 140.142 15.6309C140.142 16.0127 140.226 16.3535 140.394 16.6538C140.562 16.9541 140.791 17.1907 141.081 17.3638C141.371 17.5317 141.699 17.6157 142.066 17.6157Z" fill="#333461" fill-opacity="1.000000" fill-rule="nonzero"/>
	</g>
</svg>
